<mxfile host="app.diagrams.net" modified="2024-06-15T13:43:09.851Z" agent="Mozilla/5.0 (Windows NT 10.0; Win64; x64) AppleWebKit/537.36 (KHTML, like Gecko) Chrome/125.0.0.0 Safari/537.36" etag="ZPDg-TapXZYm0dHVWw2F" version="24.5.4" type="device">
  <diagram name="Страница — 1" id="dJ2GvJfLFvMO8EYtTkkF">
    <mxGraphModel dx="7390" dy="4289" grid="1" gridSize="10" guides="1" tooltips="1" connect="1" arrows="1" fold="1" page="1" pageScale="1" pageWidth="827" pageHeight="1169" background="none" math="0" shadow="0">
      <root>
        <mxCell id="0" />
        <mxCell id="1" parent="0" />
        <mxCell id="VL1IRFVw9CRqcu_rCFcb-8" value="" style="rounded=0;whiteSpace=wrap;html=1;fillColor=#e1d5e7;strokeColor=#9673a6;" vertex="1" parent="1">
          <mxGeometry x="-860" y="-140" width="2490" height="2580" as="geometry" />
        </mxCell>
        <mxCell id="AQINbPIV-0PW6xjad2_r-1" value="Роль: Клиент" style="html=1;outlineConnect=0;whiteSpace=wrap;fillColor=#ffff99;shape=mxgraph.archimate3.application;appType=role;archiType=square;" parent="1" vertex="1">
          <mxGeometry x="170" y="20" width="150" height="75" as="geometry" />
        </mxCell>
        <mxCell id="AQINbPIV-0PW6xjad2_r-2" value="Пользователи терминалов самообслуживания" style="html=1;outlineConnect=0;whiteSpace=wrap;fillColor=#ffff99;shape=mxgraph.archimate3.application;appType=actor;archiType=square;" parent="1" vertex="1">
          <mxGeometry x="370" y="20" width="150" height="75" as="geometry" />
        </mxCell>
        <mxCell id="AQINbPIV-0PW6xjad2_r-3" value="" style="endArrow=block;html=1;endFill=1;startArrow=oval;startFill=1;edgeStyle=elbowEdgeStyle;elbow=vertical;rounded=0;exitX=0;exitY=0.5;exitDx=0;exitDy=0;exitPerimeter=0;entryX=1;entryY=0.5;entryDx=0;entryDy=0;entryPerimeter=0;" parent="1" source="AQINbPIV-0PW6xjad2_r-2" target="AQINbPIV-0PW6xjad2_r-1" edge="1">
          <mxGeometry width="160" relative="1" as="geometry">
            <mxPoint x="400" y="350" as="sourcePoint" />
            <mxPoint x="560" y="350" as="targetPoint" />
          </mxGeometry>
        </mxCell>
        <mxCell id="AQINbPIV-0PW6xjad2_r-4" value="&lt;div style=&quot;padding: 10px 50px 350px;&quot;&gt;&lt;span style=&quot;background-color: initial;&quot;&gt;Терминал самообслуживания&lt;/span&gt;&lt;/div&gt;" style="html=1;outlineConnect=0;whiteSpace=wrap;fillColor=#ffff99;shape=mxgraph.archimate3.application;appType=product;archiType=square;align=right;" parent="1" vertex="1">
          <mxGeometry x="-630" y="180" width="2130" height="370" as="geometry" />
        </mxCell>
        <mxCell id="AQINbPIV-0PW6xjad2_r-260" value="&lt;blockquote style=&quot;margin: 0px 0px 0px 40px; border: none; padding: 0px 40px 250px 0px;&quot;&gt;Отображение пользовательского интерфейса&lt;/blockquote&gt;" style="html=1;outlineConnect=0;whiteSpace=wrap;fillColor=#ffff99;shape=mxgraph.archimate3.application;appType=func;archiType=rounded;align=right;" parent="1" vertex="1">
          <mxGeometry x="-600" y="220" width="2050" height="290" as="geometry" />
        </mxCell>
        <mxCell id="AQINbPIV-0PW6xjad2_r-266" value="&lt;div style=&quot;text-align: justify; padding-bottom: 100px;&quot;&gt;Просмотр меню&lt;/div&gt;" style="html=1;outlineConnect=0;whiteSpace=wrap;fillColor=#ffff99;shape=mxgraph.archimate3.application;appType=func;archiType=rounded;" parent="1" vertex="1">
          <mxGeometry x="-170" y="260" width="350" height="150" as="geometry" />
        </mxCell>
        <mxCell id="AQINbPIV-0PW6xjad2_r-263" value="Добавление товара в корзину" style="html=1;outlineConnect=0;whiteSpace=wrap;fillColor=#ffff99;shape=mxgraph.archimate3.application;appType=func;archiType=rounded;" parent="1" vertex="1">
          <mxGeometry x="20" y="320" width="140" height="75" as="geometry" />
        </mxCell>
        <mxCell id="AQINbPIV-0PW6xjad2_r-261" value="Фильтрация и поиск по меню" style="html=1;outlineConnect=0;whiteSpace=wrap;fillColor=#ffff99;shape=mxgraph.archimate3.application;appType=func;archiType=rounded;" parent="1" vertex="1">
          <mxGeometry x="-160" y="320" width="130" height="75" as="geometry" />
        </mxCell>
        <mxCell id="AQINbPIV-0PW6xjad2_r-267" value="&lt;div style=&quot;text-align: justify; padding-bottom: 130px;&quot;&gt;&lt;span style=&quot;background-color: initial;&quot;&gt;Просмотр корзины&lt;/span&gt;&lt;/div&gt;" style="html=1;outlineConnect=0;whiteSpace=wrap;fillColor=#ffff99;shape=mxgraph.archimate3.application;appType=func;archiType=rounded;" parent="1" vertex="1">
          <mxGeometry x="290" y="260" width="370" height="150" as="geometry" />
        </mxCell>
        <mxCell id="AQINbPIV-0PW6xjad2_r-265" value="Переход к оформлению заказа" style="html=1;outlineConnect=0;whiteSpace=wrap;fillColor=#ffff99;shape=mxgraph.archimate3.application;appType=func;archiType=rounded;" parent="1" vertex="1">
          <mxGeometry x="490" y="320" width="150" height="75" as="geometry" />
        </mxCell>
        <mxCell id="AQINbPIV-0PW6xjad2_r-264" value="Удаление товара из корзины" style="html=1;outlineConnect=0;whiteSpace=wrap;fillColor=#ffff99;shape=mxgraph.archimate3.application;appType=func;archiType=rounded;" parent="1" vertex="1">
          <mxGeometry x="310" y="320" width="150" height="75" as="geometry" />
        </mxCell>
        <mxCell id="AQINbPIV-0PW6xjad2_r-269" value="" style="edgeStyle=elbowEdgeStyle;html=1;endArrow=none;elbow=vertical;rounded=0;entryX=0;entryY=0.5;entryDx=0;entryDy=0;entryPerimeter=0;exitX=1;exitY=0.5;exitDx=0;exitDy=0;exitPerimeter=0;" parent="1" source="AQINbPIV-0PW6xjad2_r-266" target="AQINbPIV-0PW6xjad2_r-267" edge="1">
          <mxGeometry width="160" relative="1" as="geometry">
            <mxPoint x="180" y="340" as="sourcePoint" />
            <mxPoint x="280" y="340" as="targetPoint" />
          </mxGeometry>
        </mxCell>
        <mxCell id="AQINbPIV-0PW6xjad2_r-270" value="" style="edgeStyle=elbowEdgeStyle;html=1;endArrow=open;elbow=vertical;endFill=1;rounded=0;entryX=0.5;entryY=1;entryDx=0;entryDy=0;entryPerimeter=0;" parent="1" source="AQINbPIV-0PW6xjad2_r-260" target="AQINbPIV-0PW6xjad2_r-1" edge="1">
          <mxGeometry width="160" relative="1" as="geometry">
            <mxPoint x="-120" y="100" as="sourcePoint" />
            <mxPoint x="40" y="100" as="targetPoint" />
          </mxGeometry>
        </mxCell>
        <mxCell id="AQINbPIV-0PW6xjad2_r-272" value="&lt;div style=&quot;padding-bottom: 195px; padding-right: 40px;&quot;&gt;&lt;span style=&quot;background-color: initial;&quot;&gt;Работа с заказом&lt;/span&gt;&lt;/div&gt;" style="html=1;outlineConnect=0;whiteSpace=wrap;fillColor=#ffff99;shape=mxgraph.archimate3.application;appType=func;archiType=rounded;align=right;" parent="1" vertex="1">
          <mxGeometry x="740" y="260" width="640" height="230" as="geometry" />
        </mxCell>
        <mxCell id="AQINbPIV-0PW6xjad2_r-273" value="&lt;blockquote style=&quot;margin: 0px 0px 0px 40px; border: none; padding: 0px 0px 100px;&quot;&gt;Оплата заказа&lt;/blockquote&gt;" style="html=1;outlineConnect=0;whiteSpace=wrap;fillColor=#ffff99;shape=mxgraph.archimate3.application;appType=func;archiType=rounded;" parent="1" vertex="1">
          <mxGeometry x="930" y="300" width="410" height="160" as="geometry" />
        </mxCell>
        <mxCell id="AQINbPIV-0PW6xjad2_r-274" value="Отмена заказа" style="html=1;outlineConnect=0;whiteSpace=wrap;fillColor=#ffff99;shape=mxgraph.archimate3.application;appType=func;archiType=rounded;" parent="1" vertex="1">
          <mxGeometry x="760" y="300" width="150" height="75" as="geometry" />
        </mxCell>
        <mxCell id="AQINbPIV-0PW6xjad2_r-275" value="" style="edgeStyle=elbowEdgeStyle;html=1;endArrow=none;elbow=vertical;rounded=0;entryX=1;entryY=0.5;entryDx=0;entryDy=0;entryPerimeter=0;exitX=0;exitY=0.5;exitDx=0;exitDy=0;exitPerimeter=0;" parent="1" source="AQINbPIV-0PW6xjad2_r-272" target="AQINbPIV-0PW6xjad2_r-267" edge="1">
          <mxGeometry width="160" relative="1" as="geometry">
            <mxPoint x="690" y="397.5" as="sourcePoint" />
            <mxPoint x="690" y="334.5" as="targetPoint" />
          </mxGeometry>
        </mxCell>
        <mxCell id="AQINbPIV-0PW6xjad2_r-276" value="Проведение оплаты картой" style="html=1;outlineConnect=0;whiteSpace=wrap;fillColor=#ffff99;shape=mxgraph.archimate3.application;appType=func;archiType=rounded;" parent="1" vertex="1">
          <mxGeometry x="970" y="360" width="150" height="75" as="geometry" />
        </mxCell>
        <mxCell id="AQINbPIV-0PW6xjad2_r-277" value="Просмотр чека" style="html=1;outlineConnect=0;whiteSpace=wrap;fillColor=#ffff99;shape=mxgraph.archimate3.application;appType=func;archiType=rounded;" parent="1" vertex="1">
          <mxGeometry x="1160" y="357.5" width="146" height="80" as="geometry" />
        </mxCell>
        <mxCell id="AQINbPIV-0PW6xjad2_r-278" value="&lt;div style=&quot;text-align: justify; padding-bottom: 450px; padding-right: 50px;&quot;&gt;&lt;span style=&quot;background-color: initial;&quot;&gt;&amp;nbsp;Модуль управления пользовательским интерфейсом&lt;/span&gt;&lt;/div&gt;" style="html=1;outlineConnect=0;whiteSpace=wrap;fillColor=#99ffff;shape=mxgraph.archimate3.application;appType=comp;archiType=square;align=right;" parent="1" vertex="1">
          <mxGeometry x="-635" y="680" width="2120" height="490" as="geometry" />
        </mxCell>
        <mxCell id="AQINbPIV-0PW6xjad2_r-285" value="&lt;blockquote style=&quot;margin: 0 0 0 40px; border: none; padding: 0px;&quot;&gt;&lt;div style=&quot;text-align: justify; padding-bottom: 300px; padding-right: 40px;&quot;&gt;&lt;span style=&quot;background-color: initial;&quot;&gt;&lt;font style=&quot;font-size: 12px;&quot;&gt;Модуль управления продуктами и меню&lt;/font&gt;&lt;/span&gt;&lt;/div&gt;&lt;/blockquote&gt;" style="html=1;outlineConnect=0;whiteSpace=wrap;fillColor=#99ffff;shape=mxgraph.archimate3.application;appType=comp;archiType=square;align=right;" parent="1" vertex="1">
          <mxGeometry x="-720" y="1470" width="1100" height="440" as="geometry" />
        </mxCell>
        <mxCell id="AQINbPIV-0PW6xjad2_r-288" value="&lt;div style=&quot;padding-bottom: 150px; padding-left: 0px; padding-right: 50px;&quot;&gt;&lt;span style=&quot;background-color: initial;&quot;&gt;Модуль управления заказами&lt;/span&gt;&lt;/div&gt;" style="html=1;outlineConnect=0;whiteSpace=wrap;fillColor=#99ffff;shape=mxgraph.archimate3.application;appType=comp;archiType=square;align=right;" parent="1" vertex="1">
          <mxGeometry x="780" y="1220" width="660" height="180" as="geometry" />
        </mxCell>
        <mxCell id="AQINbPIV-0PW6xjad2_r-293" value="" style="edgeStyle=elbowEdgeStyle;html=1;endArrow=open;elbow=horizontal;endFill=1;rounded=0;entryX=0;entryY=0.5;entryDx=0;entryDy=0;entryPerimeter=0;exitX=0;exitY=0.5;exitDx=0;exitDy=0;exitPerimeter=0;" parent="1" source="AQINbPIV-0PW6xjad2_r-278" target="AQINbPIV-0PW6xjad2_r-260" edge="1">
          <mxGeometry width="160" relative="1" as="geometry">
            <mxPoint x="-360" y="600" as="sourcePoint" />
            <mxPoint x="-200" y="600" as="targetPoint" />
            <Array as="points">
              <mxPoint x="-700" y="630" />
            </Array>
          </mxGeometry>
        </mxCell>
        <mxCell id="AQINbPIV-0PW6xjad2_r-299" value="Отображение интерфейса терминала" style="edgeLabel;html=1;align=center;verticalAlign=middle;resizable=0;points=[];" parent="AQINbPIV-0PW6xjad2_r-293" vertex="1" connectable="0">
          <mxGeometry x="0.0918" y="5" relative="1" as="geometry">
            <mxPoint as="offset" />
          </mxGeometry>
        </mxCell>
        <mxCell id="AQINbPIV-0PW6xjad2_r-295" value="&lt;div style=&quot;padding-bottom: 550px; padding-right: 50px;&quot;&gt;&lt;span style=&quot;background-color: initial;&quot;&gt;Модуль оплаты&lt;/span&gt;&lt;/div&gt;" style="html=1;outlineConnect=0;whiteSpace=wrap;fillColor=#99ffff;shape=mxgraph.archimate3.application;appType=comp;archiType=square;align=right;" parent="1" vertex="1">
          <mxGeometry x="790" y="1450" width="660" height="580" as="geometry" />
        </mxCell>
        <mxCell id="AQINbPIV-0PW6xjad2_r-301" value="&lt;table cellpadding=&quot;0&quot; cellspacing=&quot;0&quot; style=&quot;font-size:1em;width:100%;height:100%;&quot;&gt;&lt;tbody&gt;&lt;tr style=&quot;height:20px;&quot;&gt;&lt;td align=&quot;center&quot;&gt;Платежные системы&amp;nbsp;&lt;/td&gt;&lt;/tr&gt;&lt;tr&gt;&lt;td align=&quot;left&quot; valign=&quot;top&quot; style=&quot;padding:4px;&quot;&gt;&lt;/td&gt;&lt;/tr&gt;&lt;/tbody&gt;&lt;/table&gt;" style="html=1;outlineConnect=0;whiteSpace=wrap;fillColor=#99ffff;shape=mxgraph.archimate3.businessObject;overflow=fill;" parent="1" vertex="1">
          <mxGeometry x="1020" y="2310" width="260" height="60" as="geometry" />
        </mxCell>
        <mxCell id="2UP2Gmx_aJuKZAox8dUP-4" value="&lt;div style=&quot;text-align: justify; padding-bottom: 370px; margin-top: 0px;&quot;&gt;&lt;span style=&quot;background-color: initial;&quot;&gt;Администрирование&amp;nbsp;&lt;/span&gt;&lt;/div&gt;" style="whiteSpace=wrap;html=1;aspect=fixed;align=right;" parent="1" vertex="1">
          <mxGeometry x="-625" y="720" width="430" height="430" as="geometry" />
        </mxCell>
        <mxCell id="2UP2Gmx_aJuKZAox8dUP-3" value="Администрирование учетной записи" style="html=1;outlineConnect=0;whiteSpace=wrap;fillColor=#99ffff;shape=mxgraph.archimate3.application;appType=func;archiType=rounded;" parent="1" vertex="1">
          <mxGeometry x="-533" y="732.5" width="210" height="75" as="geometry" />
        </mxCell>
        <mxCell id="2UP2Gmx_aJuKZAox8dUP-5" value="&lt;div style=&quot;text-align: justify; padding-bottom: 160px;&quot;&gt;Просмотр личного кабинета&lt;/div&gt;" style="html=1;outlineConnect=0;whiteSpace=wrap;fillColor=#ffff99;shape=mxgraph.archimate3.application;appType=func;archiType=rounded;" parent="1" vertex="1">
          <mxGeometry x="-570" y="262.5" width="350" height="207.5" as="geometry" />
        </mxCell>
        <mxCell id="2UP2Gmx_aJuKZAox8dUP-6" value="Редактировать данные профиля" style="html=1;outlineConnect=0;whiteSpace=wrap;fillColor=#ffff99;shape=mxgraph.archimate3.application;appType=func;archiType=rounded;" parent="1" vertex="1">
          <mxGeometry x="-380" y="300" width="140" height="80" as="geometry" />
        </mxCell>
        <mxCell id="2UP2Gmx_aJuKZAox8dUP-7" value="Сменить пароль" style="html=1;outlineConnect=0;whiteSpace=wrap;fillColor=#ffff99;shape=mxgraph.archimate3.application;appType=func;archiType=rounded;" parent="1" vertex="1">
          <mxGeometry x="-550" y="312.5" width="130" height="50" as="geometry" />
        </mxCell>
        <mxCell id="2UP2Gmx_aJuKZAox8dUP-8" value="" style="edgeStyle=elbowEdgeStyle;html=1;endArrow=none;elbow=vertical;rounded=0;exitX=1;exitY=0.5;exitDx=0;exitDy=0;exitPerimeter=0;entryX=0;entryY=0.5;entryDx=0;entryDy=0;entryPerimeter=0;" parent="1" source="2UP2Gmx_aJuKZAox8dUP-5" target="AQINbPIV-0PW6xjad2_r-266" edge="1">
          <mxGeometry width="160" relative="1" as="geometry">
            <mxPoint x="-160" y="530" as="sourcePoint" />
            <mxPoint y="530" as="targetPoint" />
          </mxGeometry>
        </mxCell>
        <mxCell id="2UP2Gmx_aJuKZAox8dUP-9" value="Управлять паролем" style="html=1;outlineConnect=0;whiteSpace=wrap;fillColor=#99ffff;shape=mxgraph.archimate3.application;appType=func;archiType=rounded;" parent="1" vertex="1">
          <mxGeometry x="-615" y="860" width="150" height="75" as="geometry" />
        </mxCell>
        <mxCell id="2UP2Gmx_aJuKZAox8dUP-10" value="Управлять фото профиля" style="html=1;outlineConnect=0;whiteSpace=wrap;fillColor=#99ffff;shape=mxgraph.archimate3.application;appType=func;archiType=rounded;" parent="1" vertex="1">
          <mxGeometry x="-575" y="980" width="150" height="75" as="geometry" />
        </mxCell>
        <mxCell id="2UP2Gmx_aJuKZAox8dUP-11" value="Управлять платежной информацией" style="html=1;outlineConnect=0;whiteSpace=wrap;fillColor=#99ffff;shape=mxgraph.archimate3.application;appType=func;archiType=rounded;" parent="1" vertex="1">
          <mxGeometry x="-405" y="980" width="150" height="75" as="geometry" />
        </mxCell>
        <mxCell id="2UP2Gmx_aJuKZAox8dUP-13" value="Управлять общей информацией (ФИО, дата рождения и др.)" style="html=1;outlineConnect=0;whiteSpace=wrap;fillColor=#99ffff;shape=mxgraph.archimate3.application;appType=func;archiType=rounded;" parent="1" vertex="1">
          <mxGeometry x="-355" y="860" width="150" height="75" as="geometry" />
        </mxCell>
        <mxCell id="2UP2Gmx_aJuKZAox8dUP-14" value="" style="html=1;startArrow=diamondThin;startFill=1;edgeStyle=elbowEdgeStyle;elbow=vertical;startSize=10;endArrow=none;endFill=0;rounded=0;entryX=0.5;entryY=0;entryDx=0;entryDy=0;entryPerimeter=0;exitX=0.05;exitY=1;exitDx=0;exitDy=0;exitPerimeter=0;" parent="1" source="2UP2Gmx_aJuKZAox8dUP-3" target="2UP2Gmx_aJuKZAox8dUP-9" edge="1">
          <mxGeometry width="160" relative="1" as="geometry">
            <mxPoint x="-505" y="810" as="sourcePoint" />
            <mxPoint x="-155" y="890" as="targetPoint" />
          </mxGeometry>
        </mxCell>
        <mxCell id="2UP2Gmx_aJuKZAox8dUP-15" value="" style="html=1;startArrow=diamondThin;startFill=1;edgeStyle=elbowEdgeStyle;elbow=vertical;startSize=10;endArrow=none;endFill=0;rounded=0;exitX=0.25;exitY=1;exitDx=0;exitDy=0;exitPerimeter=0;" parent="1" source="2UP2Gmx_aJuKZAox8dUP-3" target="2UP2Gmx_aJuKZAox8dUP-10" edge="1">
          <mxGeometry width="160" relative="1" as="geometry">
            <mxPoint x="-315" y="890" as="sourcePoint" />
            <mxPoint x="-155" y="890" as="targetPoint" />
            <Array as="points">
              <mxPoint x="-455" y="850" />
            </Array>
          </mxGeometry>
        </mxCell>
        <mxCell id="2UP2Gmx_aJuKZAox8dUP-16" value="" style="html=1;startArrow=diamondThin;startFill=1;edgeStyle=elbowEdgeStyle;elbow=vertical;startSize=10;endArrow=none;endFill=0;rounded=0;entryX=0.25;entryY=0;entryDx=0;entryDy=0;entryPerimeter=0;exitX=0.5;exitY=1;exitDx=0;exitDy=0;exitPerimeter=0;" parent="1" source="2UP2Gmx_aJuKZAox8dUP-3" target="2UP2Gmx_aJuKZAox8dUP-11" edge="1">
          <mxGeometry width="160" relative="1" as="geometry">
            <mxPoint x="-315" y="890" as="sourcePoint" />
            <mxPoint x="-155" y="890" as="targetPoint" />
            <Array as="points">
              <mxPoint x="-385" y="950" />
            </Array>
          </mxGeometry>
        </mxCell>
        <mxCell id="2UP2Gmx_aJuKZAox8dUP-17" value="" style="html=1;startArrow=diamondThin;startFill=1;edgeStyle=elbowEdgeStyle;elbow=vertical;startSize=10;endArrow=none;endFill=0;rounded=0;entryX=0.5;entryY=0;entryDx=0;entryDy=0;entryPerimeter=0;exitX=0.75;exitY=1;exitDx=0;exitDy=0;exitPerimeter=0;" parent="1" source="2UP2Gmx_aJuKZAox8dUP-3" target="2UP2Gmx_aJuKZAox8dUP-13" edge="1">
          <mxGeometry width="160" relative="1" as="geometry">
            <mxPoint x="-365" y="810" as="sourcePoint" />
            <mxPoint x="-155" y="890" as="targetPoint" />
          </mxGeometry>
        </mxCell>
        <mxCell id="2UP2Gmx_aJuKZAox8dUP-18" value="" style="edgeStyle=elbowEdgeStyle;html=1;endArrow=open;elbow=vertical;endFill=1;rounded=0;entryX=0.25;entryY=1;entryDx=0;entryDy=0;entryPerimeter=0;exitX=0.5;exitY=0;exitDx=0;exitDy=0;exitPerimeter=0;" parent="1" source="2UP2Gmx_aJuKZAox8dUP-3" target="2UP2Gmx_aJuKZAox8dUP-5" edge="1">
          <mxGeometry width="160" relative="1" as="geometry">
            <mxPoint x="-320" y="650" as="sourcePoint" />
            <mxPoint x="-160" y="650" as="targetPoint" />
          </mxGeometry>
        </mxCell>
        <mxCell id="2UP2Gmx_aJuKZAox8dUP-19" value="&lt;div style=&quot;text-align: justify; padding-bottom: 370px; margin-top: 0px;&quot;&gt;Функционал меню&lt;/div&gt;" style="whiteSpace=wrap;html=1;aspect=fixed;align=right;" parent="1" vertex="1">
          <mxGeometry x="-175" y="720" width="430" height="430" as="geometry" />
        </mxCell>
        <mxCell id="2UP2Gmx_aJuKZAox8dUP-20" value="Обновление данных по товарам в базе" style="html=1;outlineConnect=0;whiteSpace=wrap;fillColor=#99ffff;shape=mxgraph.archimate3.application;appType=func;archiType=rounded;" parent="1" vertex="1">
          <mxGeometry x="-147.5" y="950" width="150" height="75" as="geometry" />
        </mxCell>
        <mxCell id="2UP2Gmx_aJuKZAox8dUP-21" value="CONSUMER" style="html=1;outlineConnect=0;whiteSpace=wrap;fillColor=#99ffff;shape=mxgraph.archimate3.application;appType=serv;archiType=rounded" parent="1" vertex="1">
          <mxGeometry x="-145" y="1055" width="145" height="65" as="geometry" />
        </mxCell>
        <mxCell id="2UP2Gmx_aJuKZAox8dUP-22" value="Брокер сообщений" style="html=1;outlineConnect=0;whiteSpace=wrap;fillColor=#99ffff;shape=mxgraph.archimate3.application;appType=comp;archiType=square;" parent="1" vertex="1">
          <mxGeometry x="-167.5" y="1240" width="190" height="100" as="geometry" />
        </mxCell>
        <mxCell id="2UP2Gmx_aJuKZAox8dUP-23" value="PRODUCER" style="html=1;outlineConnect=0;whiteSpace=wrap;fillColor=#99ffff;shape=mxgraph.archimate3.application;appType=serv;archiType=rounded" parent="1" vertex="1">
          <mxGeometry x="-145" y="1480" width="145" height="65" as="geometry" />
        </mxCell>
        <mxCell id="2UP2Gmx_aJuKZAox8dUP-24" value="" style="edgeStyle=elbowEdgeStyle;html=1;endArrow=open;elbow=vertical;endFill=1;rounded=0;exitX=0.5;exitY=0;exitDx=0;exitDy=0;exitPerimeter=0;entryX=0.5;entryY=1;entryDx=0;entryDy=0;entryPerimeter=0;" parent="1" source="2UP2Gmx_aJuKZAox8dUP-22" target="2UP2Gmx_aJuKZAox8dUP-21" edge="1">
          <mxGeometry width="160" relative="1" as="geometry">
            <mxPoint x="145" y="1224.38" as="sourcePoint" />
            <mxPoint x="305" y="1224.38" as="targetPoint" />
          </mxGeometry>
        </mxCell>
        <mxCell id="2UP2Gmx_aJuKZAox8dUP-25" value="" style="edgeStyle=elbowEdgeStyle;html=1;endArrow=open;elbow=vertical;endFill=1;rounded=0;exitX=0.5;exitY=0;exitDx=0;exitDy=0;exitPerimeter=0;entryX=0.5;entryY=1;entryDx=0;entryDy=0;entryPerimeter=0;" parent="1" source="2UP2Gmx_aJuKZAox8dUP-21" target="2UP2Gmx_aJuKZAox8dUP-20" edge="1">
          <mxGeometry width="160" relative="1" as="geometry">
            <mxPoint x="-275" y="1320" as="sourcePoint" />
            <mxPoint x="-115" y="1320" as="targetPoint" />
          </mxGeometry>
        </mxCell>
        <mxCell id="2UP2Gmx_aJuKZAox8dUP-26" value="" style="edgeStyle=elbowEdgeStyle;html=1;endArrow=open;elbow=vertical;endFill=1;rounded=0;exitX=0.5;exitY=0;exitDx=0;exitDy=0;exitPerimeter=0;entryX=0.5;entryY=1;entryDx=0;entryDy=0;entryPerimeter=0;" parent="1" source="2UP2Gmx_aJuKZAox8dUP-23" target="2UP2Gmx_aJuKZAox8dUP-22" edge="1">
          <mxGeometry width="160" relative="1" as="geometry">
            <mxPoint x="-275" y="1320" as="sourcePoint" />
            <mxPoint x="-115" y="1320" as="targetPoint" />
          </mxGeometry>
        </mxCell>
        <mxCell id="2UP2Gmx_aJuKZAox8dUP-27" value="Формирование списка продуктов для меню терминала" style="html=1;outlineConnect=0;whiteSpace=wrap;fillColor=#99ffff;shape=mxgraph.archimate3.application;appType=func;archiType=rounded;" parent="1" vertex="1">
          <mxGeometry x="-425" y="1630" width="210" height="75" as="geometry" />
        </mxCell>
        <mxCell id="2UP2Gmx_aJuKZAox8dUP-30" value="" style="edgeStyle=elbowEdgeStyle;html=1;endArrow=open;elbow=vertical;endFill=1;rounded=0;entryX=0.25;entryY=1;entryDx=0;entryDy=0;entryPerimeter=0;" parent="1" source="2UP2Gmx_aJuKZAox8dUP-27" target="2UP2Gmx_aJuKZAox8dUP-23" edge="1">
          <mxGeometry width="160" relative="1" as="geometry">
            <mxPoint x="-215" y="1520" as="sourcePoint" />
            <mxPoint x="-55" y="1520" as="targetPoint" />
            <Array as="points" />
          </mxGeometry>
        </mxCell>
        <mxCell id="2UP2Gmx_aJuKZAox8dUP-31" value="Событие: обновление данных по продукту/продуктам в БД" style="html=1;outlineConnect=0;whiteSpace=wrap;fillColor=#99ffff;shape=mxgraph.archimate3.application;appType=event;archiType=rounded" parent="1" vertex="1">
          <mxGeometry x="190" y="1630" width="150" height="75" as="geometry" />
        </mxCell>
        <mxCell id="2UP2Gmx_aJuKZAox8dUP-32" value="Формирование списка измененных продуктов для меню терминала" style="html=1;outlineConnect=0;whiteSpace=wrap;fillColor=#99ffff;shape=mxgraph.archimate3.application;appType=func;archiType=rounded;" parent="1" vertex="1">
          <mxGeometry x="-70" y="1630" width="150" height="75" as="geometry" />
        </mxCell>
        <mxCell id="2UP2Gmx_aJuKZAox8dUP-33" value="" style="edgeStyle=elbowEdgeStyle;html=1;endArrow=block;dashed=0;elbow=horizontal;endFill=1;rounded=0;exitX=0;exitY=0.5;exitDx=0;exitDy=0;exitPerimeter=0;entryX=1;entryY=0.5;entryDx=0;entryDy=0;entryPerimeter=0;" parent="1" source="2UP2Gmx_aJuKZAox8dUP-31" target="2UP2Gmx_aJuKZAox8dUP-32" edge="1">
          <mxGeometry width="160" relative="1" as="geometry">
            <mxPoint x="-215" y="1520" as="sourcePoint" />
            <mxPoint x="-55" y="1520" as="targetPoint" />
          </mxGeometry>
        </mxCell>
        <mxCell id="2UP2Gmx_aJuKZAox8dUP-34" value="Инициирует" style="edgeLabel;html=1;align=center;verticalAlign=middle;resizable=0;points=[];imageAlign=center;" parent="2UP2Gmx_aJuKZAox8dUP-33" vertex="1" connectable="0">
          <mxGeometry x="-0.4341" y="-2" relative="1" as="geometry">
            <mxPoint as="offset" />
          </mxGeometry>
        </mxCell>
        <mxCell id="2UP2Gmx_aJuKZAox8dUP-35" value="" style="edgeStyle=elbowEdgeStyle;html=1;endArrow=open;elbow=vertical;endFill=1;rounded=0;entryX=0.75;entryY=1;entryDx=0;entryDy=0;entryPerimeter=0;exitX=0.5;exitY=0;exitDx=0;exitDy=0;exitPerimeter=0;" parent="1" source="2UP2Gmx_aJuKZAox8dUP-32" target="2UP2Gmx_aJuKZAox8dUP-23" edge="1">
          <mxGeometry width="160" relative="1" as="geometry">
            <mxPoint x="-215" y="1570" as="sourcePoint" />
            <mxPoint x="-55" y="1570" as="targetPoint" />
          </mxGeometry>
        </mxCell>
        <mxCell id="2UP2Gmx_aJuKZAox8dUP-36" value="Управление меню" style="html=1;outlineConnect=0;whiteSpace=wrap;fillColor=#99ffff;shape=mxgraph.archimate3.application;appType=func;archiType=rounded;" parent="1" vertex="1">
          <mxGeometry x="-45" y="732.5" width="150" height="75" as="geometry" />
        </mxCell>
        <mxCell id="2UP2Gmx_aJuKZAox8dUP-39" value="Отрисовка меню" style="html=1;outlineConnect=0;whiteSpace=wrap;fillColor=#99ffff;shape=mxgraph.archimate3.application;appType=func;archiType=rounded;" parent="1" vertex="1">
          <mxGeometry x="-147.5" y="835" width="150" height="75" as="geometry" />
        </mxCell>
        <mxCell id="2UP2Gmx_aJuKZAox8dUP-40" value="" style="edgeStyle=elbowEdgeStyle;html=1;endArrow=open;elbow=vertical;endFill=1;rounded=0;entryX=0.5;entryY=1;entryDx=0;entryDy=0;entryPerimeter=0;exitX=0.5;exitY=0;exitDx=0;exitDy=0;exitPerimeter=0;" parent="1" source="2UP2Gmx_aJuKZAox8dUP-20" target="2UP2Gmx_aJuKZAox8dUP-39" edge="1">
          <mxGeometry width="160" relative="1" as="geometry">
            <mxPoint x="-385" y="1010" as="sourcePoint" />
            <mxPoint x="-225" y="1010" as="targetPoint" />
          </mxGeometry>
        </mxCell>
        <mxCell id="2UP2Gmx_aJuKZAox8dUP-42" value="" style="html=1;startArrow=diamondThin;startFill=1;edgeStyle=elbowEdgeStyle;elbow=vertical;startSize=10;endArrow=none;endFill=0;rounded=0;entryX=0.5;entryY=0;entryDx=0;entryDy=0;entryPerimeter=0;exitX=0;exitY=0.5;exitDx=0;exitDy=0;exitPerimeter=0;" parent="1" source="2UP2Gmx_aJuKZAox8dUP-36" target="2UP2Gmx_aJuKZAox8dUP-39" edge="1">
          <mxGeometry width="160" relative="1" as="geometry">
            <mxPoint x="-385" y="1010" as="sourcePoint" />
            <mxPoint x="-225" y="1010" as="targetPoint" />
            <Array as="points">
              <mxPoint x="-115" y="770" />
            </Array>
          </mxGeometry>
        </mxCell>
        <mxCell id="2UP2Gmx_aJuKZAox8dUP-43" value="Управление поиском и фильтрацией" style="html=1;outlineConnect=0;whiteSpace=wrap;fillColor=#99ffff;shape=mxgraph.archimate3.application;appType=func;archiType=rounded;" parent="1" vertex="1">
          <mxGeometry x="15" y="960" width="150" height="75" as="geometry" />
        </mxCell>
        <mxCell id="2UP2Gmx_aJuKZAox8dUP-44" value="" style="html=1;startArrow=diamondThin;startFill=1;edgeStyle=elbowEdgeStyle;elbow=vertical;startSize=10;endArrow=none;endFill=0;rounded=0;entryX=0.25;entryY=0;entryDx=0;entryDy=0;entryPerimeter=0;exitX=0.5;exitY=1;exitDx=0;exitDy=0;exitPerimeter=0;" parent="1" source="2UP2Gmx_aJuKZAox8dUP-36" target="2UP2Gmx_aJuKZAox8dUP-43" edge="1">
          <mxGeometry width="160" relative="1" as="geometry">
            <mxPoint x="-385" y="1010" as="sourcePoint" />
            <mxPoint x="-225" y="1010" as="targetPoint" />
          </mxGeometry>
        </mxCell>
        <mxCell id="2UP2Gmx_aJuKZAox8dUP-45" value="Управление кнопками в меню" style="html=1;outlineConnect=0;whiteSpace=wrap;fillColor=#99ffff;shape=mxgraph.archimate3.application;appType=func;archiType=rounded;" parent="1" vertex="1">
          <mxGeometry x="92.5" y="870" width="150" height="75" as="geometry" />
        </mxCell>
        <mxCell id="2UP2Gmx_aJuKZAox8dUP-46" value="" style="html=1;startArrow=diamondThin;startFill=1;edgeStyle=elbowEdgeStyle;elbow=vertical;startSize=10;endArrow=none;endFill=0;rounded=0;entryX=0.5;entryY=0;entryDx=0;entryDy=0;entryPerimeter=0;exitX=0.75;exitY=1;exitDx=0;exitDy=0;exitPerimeter=0;" parent="1" source="2UP2Gmx_aJuKZAox8dUP-36" target="2UP2Gmx_aJuKZAox8dUP-45" edge="1">
          <mxGeometry width="160" relative="1" as="geometry">
            <mxPoint x="-385" y="1010" as="sourcePoint" />
            <mxPoint x="-225" y="1010" as="targetPoint" />
          </mxGeometry>
        </mxCell>
        <mxCell id="2UP2Gmx_aJuKZAox8dUP-47" value="" style="edgeStyle=elbowEdgeStyle;html=1;endArrow=open;elbow=vertical;endFill=1;rounded=0;exitX=0.5;exitY=0;exitDx=0;exitDy=0;exitPerimeter=0;entryX=0.25;entryY=1;entryDx=0;entryDy=0;entryPerimeter=0;" parent="1" source="2UP2Gmx_aJuKZAox8dUP-36" target="AQINbPIV-0PW6xjad2_r-266" edge="1">
          <mxGeometry width="160" relative="1" as="geometry">
            <mxPoint x="-370" y="710" as="sourcePoint" />
            <mxPoint x="-210" y="710" as="targetPoint" />
          </mxGeometry>
        </mxCell>
        <mxCell id="2UP2Gmx_aJuKZAox8dUP-50" value="Авторизация&amp;nbsp;" style="html=1;outlineConnect=0;whiteSpace=wrap;fillColor=#ffff99;shape=mxgraph.archimate3.application;appType=func;archiType=rounded;" parent="1" vertex="1">
          <mxGeometry x="-478" y="395" width="130" height="50" as="geometry" />
        </mxCell>
        <mxCell id="2UP2Gmx_aJuKZAox8dUP-51" value="&lt;div style=&quot;text-align: justify; padding-bottom: 370px; margin-top: 0px;&quot;&gt;Работа с корзиной&lt;/div&gt;" style="whiteSpace=wrap;html=1;aspect=fixed;align=right;" parent="1" vertex="1">
          <mxGeometry x="275" y="720" width="430" height="430" as="geometry" />
        </mxCell>
        <mxCell id="2UP2Gmx_aJuKZAox8dUP-52" value="Управление корзиной" style="html=1;outlineConnect=0;whiteSpace=wrap;fillColor=#99ffff;shape=mxgraph.archimate3.application;appType=func;archiType=rounded;" parent="1" vertex="1">
          <mxGeometry x="400" y="732.5" width="150" height="75" as="geometry" />
        </mxCell>
        <mxCell id="2UP2Gmx_aJuKZAox8dUP-53" value="Добавление товара в корзину" style="html=1;outlineConnect=0;whiteSpace=wrap;fillColor=#99ffff;shape=mxgraph.archimate3.application;appType=func;archiType=rounded;" parent="1" vertex="1">
          <mxGeometry x="290" y="850" width="150" height="75" as="geometry" />
        </mxCell>
        <mxCell id="2UP2Gmx_aJuKZAox8dUP-54" value="Удаление товара из коризны" style="html=1;outlineConnect=0;whiteSpace=wrap;fillColor=#99ffff;shape=mxgraph.archimate3.application;appType=func;archiType=rounded;" parent="1" vertex="1">
          <mxGeometry x="330" y="980" width="150" height="75" as="geometry" />
        </mxCell>
        <mxCell id="2UP2Gmx_aJuKZAox8dUP-55" value="Возврат в меню" style="html=1;outlineConnect=0;whiteSpace=wrap;fillColor=#99ffff;shape=mxgraph.archimate3.application;appType=func;archiType=rounded;" parent="1" vertex="1">
          <mxGeometry x="510" y="980" width="150" height="75" as="geometry" />
        </mxCell>
        <mxCell id="2UP2Gmx_aJuKZAox8dUP-56" value="Переход к оформлению заказа" style="html=1;outlineConnect=0;whiteSpace=wrap;fillColor=#99ffff;shape=mxgraph.archimate3.application;appType=func;archiType=rounded;" parent="1" vertex="1">
          <mxGeometry x="550" y="852.5" width="150" height="75" as="geometry" />
        </mxCell>
        <mxCell id="2UP2Gmx_aJuKZAox8dUP-57" value="" style="html=1;startArrow=diamondThin;startFill=1;edgeStyle=elbowEdgeStyle;elbow=vertical;startSize=10;endArrow=none;endFill=0;rounded=0;exitX=0;exitY=0.5;exitDx=0;exitDy=0;exitPerimeter=0;" parent="1" source="2UP2Gmx_aJuKZAox8dUP-52" target="2UP2Gmx_aJuKZAox8dUP-53" edge="1">
          <mxGeometry width="160" relative="1" as="geometry">
            <mxPoint x="260" y="830" as="sourcePoint" />
            <mxPoint x="420" y="830" as="targetPoint" />
            <Array as="points">
              <mxPoint x="350" y="770" />
            </Array>
          </mxGeometry>
        </mxCell>
        <mxCell id="2UP2Gmx_aJuKZAox8dUP-58" value="" style="html=1;startArrow=diamondThin;startFill=1;edgeStyle=elbowEdgeStyle;elbow=vertical;startSize=10;endArrow=none;endFill=0;rounded=0;entryX=0.75;entryY=0;entryDx=0;entryDy=0;entryPerimeter=0;" parent="1" source="2UP2Gmx_aJuKZAox8dUP-52" target="2UP2Gmx_aJuKZAox8dUP-54" edge="1">
          <mxGeometry width="160" relative="1" as="geometry">
            <mxPoint x="260" y="830" as="sourcePoint" />
            <mxPoint x="420" y="830" as="targetPoint" />
            <Array as="points">
              <mxPoint x="470" y="930" />
            </Array>
          </mxGeometry>
        </mxCell>
        <mxCell id="2UP2Gmx_aJuKZAox8dUP-59" value="" style="html=1;startArrow=diamondThin;startFill=1;edgeStyle=elbowEdgeStyle;elbow=vertical;startSize=10;endArrow=none;endFill=0;rounded=0;entryX=0.25;entryY=0;entryDx=0;entryDy=0;entryPerimeter=0;" parent="1" source="2UP2Gmx_aJuKZAox8dUP-52" target="2UP2Gmx_aJuKZAox8dUP-55" edge="1">
          <mxGeometry width="160" relative="1" as="geometry">
            <mxPoint x="490" y="810" as="sourcePoint" />
            <mxPoint x="420" y="830" as="targetPoint" />
            <Array as="points">
              <mxPoint x="520" y="940" />
            </Array>
          </mxGeometry>
        </mxCell>
        <mxCell id="2UP2Gmx_aJuKZAox8dUP-60" value="" style="html=1;startArrow=diamondThin;startFill=1;edgeStyle=elbowEdgeStyle;elbow=vertical;startSize=10;endArrow=none;endFill=0;rounded=0;exitX=1;exitY=0.5;exitDx=0;exitDy=0;exitPerimeter=0;entryX=0.5;entryY=0;entryDx=0;entryDy=0;entryPerimeter=0;" parent="1" source="2UP2Gmx_aJuKZAox8dUP-52" target="2UP2Gmx_aJuKZAox8dUP-56" edge="1">
          <mxGeometry width="160" relative="1" as="geometry">
            <mxPoint x="260" y="830" as="sourcePoint" />
            <mxPoint x="420" y="830" as="targetPoint" />
            <Array as="points">
              <mxPoint x="640" y="770" />
            </Array>
          </mxGeometry>
        </mxCell>
        <mxCell id="2UP2Gmx_aJuKZAox8dUP-61" value="" style="edgeStyle=elbowEdgeStyle;html=1;endArrow=open;elbow=vertical;endFill=1;rounded=0;entryX=0.5;entryY=1;entryDx=0;entryDy=0;entryPerimeter=0;exitX=0.5;exitY=0;exitDx=0;exitDy=0;exitPerimeter=0;" parent="1" source="2UP2Gmx_aJuKZAox8dUP-52" target="AQINbPIV-0PW6xjad2_r-267" edge="1">
          <mxGeometry width="160" relative="1" as="geometry">
            <mxPoint x="280" y="810" as="sourcePoint" />
            <mxPoint x="440" y="810" as="targetPoint" />
            <Array as="points">
              <mxPoint x="440" y="690" />
            </Array>
          </mxGeometry>
        </mxCell>
        <mxCell id="2UP2Gmx_aJuKZAox8dUP-70" value="&lt;div style=&quot;text-align: justify; padding-bottom: 370px;&quot;&gt;&lt;span style=&quot;background-color: initial;&quot;&gt;Работа с заказом&lt;/span&gt;&lt;/div&gt;" style="rounded=0;whiteSpace=wrap;html=1;align=right;" parent="1" vertex="1">
          <mxGeometry x="750" y="720" width="710" height="430" as="geometry" />
        </mxCell>
        <mxCell id="2UP2Gmx_aJuKZAox8dUP-63" value="Управление заказом" style="html=1;outlineConnect=0;whiteSpace=wrap;fillColor=#99ffff;shape=mxgraph.archimate3.application;appType=func;archiType=rounded;" parent="1" vertex="1">
          <mxGeometry x="985" y="732.5" width="150" height="75" as="geometry" />
        </mxCell>
        <mxCell id="2UP2Gmx_aJuKZAox8dUP-64" value="&lt;div style=&quot;text-align: justify; padding-bottom: 0px;&quot;&gt;&lt;span style=&quot;background-color: initial;&quot;&gt;Отмена заказа&lt;/span&gt;&lt;/div&gt;" style="html=1;outlineConnect=0;whiteSpace=wrap;fillColor=#99ffff;shape=mxgraph.archimate3.application;appType=func;archiType=rounded;" parent="1" vertex="1">
          <mxGeometry x="770" y="885" width="200" height="75" as="geometry" />
        </mxCell>
        <mxCell id="2UP2Gmx_aJuKZAox8dUP-66" value="Оплата заказа и отображение чека" style="html=1;outlineConnect=0;whiteSpace=wrap;fillColor=#99ffff;shape=mxgraph.archimate3.application;appType=func;archiType=rounded;" parent="1" vertex="1">
          <mxGeometry x="1210" y="882.5" width="180" height="75" as="geometry" />
        </mxCell>
        <mxCell id="2UP2Gmx_aJuKZAox8dUP-67" value="" style="html=1;startArrow=diamondThin;startFill=1;edgeStyle=elbowEdgeStyle;elbow=vertical;startSize=10;endArrow=none;endFill=0;rounded=0;exitX=0.25;exitY=1;exitDx=0;exitDy=0;exitPerimeter=0;entryX=0.5;entryY=0;entryDx=0;entryDy=0;entryPerimeter=0;" parent="1" source="2UP2Gmx_aJuKZAox8dUP-63" target="2UP2Gmx_aJuKZAox8dUP-64" edge="1">
          <mxGeometry width="160" relative="1" as="geometry">
            <mxPoint x="1110" y="830" as="sourcePoint" />
            <mxPoint x="1270" y="830" as="targetPoint" />
          </mxGeometry>
        </mxCell>
        <mxCell id="2UP2Gmx_aJuKZAox8dUP-68" value="" style="html=1;startArrow=diamondThin;startFill=1;edgeStyle=elbowEdgeStyle;elbow=vertical;startSize=10;endArrow=none;endFill=0;rounded=0;entryX=0.5;entryY=0;entryDx=0;entryDy=0;entryPerimeter=0;exitX=0.75;exitY=1;exitDx=0;exitDy=0;exitPerimeter=0;" parent="1" source="2UP2Gmx_aJuKZAox8dUP-63" target="2UP2Gmx_aJuKZAox8dUP-66" edge="1">
          <mxGeometry width="160" relative="1" as="geometry">
            <mxPoint x="1110" y="830" as="sourcePoint" />
            <mxPoint x="1270" y="830" as="targetPoint" />
          </mxGeometry>
        </mxCell>
        <mxCell id="2UP2Gmx_aJuKZAox8dUP-69" value="Выполнить отмену заказа" style="html=1;outlineConnect=0;whiteSpace=wrap;fillColor=#99ffff;shape=mxgraph.archimate3.application;appType=func;archiType=rounded;" parent="1" vertex="1">
          <mxGeometry x="795" y="1290" width="150" height="75" as="geometry" />
        </mxCell>
        <mxCell id="2UP2Gmx_aJuKZAox8dUP-71" value="" style="edgeStyle=elbowEdgeStyle;html=1;endArrow=open;elbow=vertical;endFill=1;rounded=0;exitX=0.5;exitY=0;exitDx=0;exitDy=0;exitPerimeter=0;entryX=0.5;entryY=1;entryDx=0;entryDy=0;entryPerimeter=0;" parent="1" source="2UP2Gmx_aJuKZAox8dUP-69" target="2UP2Gmx_aJuKZAox8dUP-64" edge="1">
          <mxGeometry width="160" relative="1" as="geometry">
            <mxPoint x="990" y="1030" as="sourcePoint" />
            <mxPoint x="1150" y="1030" as="targetPoint" />
            <Array as="points">
              <mxPoint x="830" y="1100" />
            </Array>
          </mxGeometry>
        </mxCell>
        <mxCell id="2UP2Gmx_aJuKZAox8dUP-72" value="Выполнить оплату заказа, выдать чек" style="html=1;outlineConnect=0;whiteSpace=wrap;fillColor=#99ffff;shape=mxgraph.archimate3.application;appType=func;archiType=rounded;" parent="1" vertex="1">
          <mxGeometry x="1225" y="1290" width="150" height="75" as="geometry" />
        </mxCell>
        <mxCell id="2UP2Gmx_aJuKZAox8dUP-77" value="Сообщить о недостатке средств или техническом сбое" style="html=1;outlineConnect=0;whiteSpace=wrap;fillColor=#99ffff;shape=mxgraph.archimate3.application;appType=func;archiType=rounded;" parent="1" vertex="1">
          <mxGeometry x="1010" y="1290" width="150" height="75" as="geometry" />
        </mxCell>
        <mxCell id="2UP2Gmx_aJuKZAox8dUP-78" value="" style="edgeStyle=elbowEdgeStyle;html=1;endArrow=open;elbow=vertical;endFill=1;rounded=0;entryX=0.25;entryY=1;entryDx=0;entryDy=0;entryPerimeter=0;exitX=0.5;exitY=0;exitDx=0;exitDy=0;exitPerimeter=0;" parent="1" source="2UP2Gmx_aJuKZAox8dUP-77" target="2UP2Gmx_aJuKZAox8dUP-66" edge="1">
          <mxGeometry width="160" relative="1" as="geometry">
            <mxPoint x="990" y="1270" as="sourcePoint" />
            <mxPoint x="1150" y="1270" as="targetPoint" />
          </mxGeometry>
        </mxCell>
        <mxCell id="2UP2Gmx_aJuKZAox8dUP-79" value="" style="edgeStyle=elbowEdgeStyle;html=1;endArrow=open;elbow=vertical;endFill=1;rounded=0;entryX=0.5;entryY=1;entryDx=0;entryDy=0;entryPerimeter=0;exitX=0.5;exitY=0;exitDx=0;exitDy=0;exitPerimeter=0;" parent="1" source="2UP2Gmx_aJuKZAox8dUP-63" target="AQINbPIV-0PW6xjad2_r-272" edge="1">
          <mxGeometry width="160" relative="1" as="geometry">
            <mxPoint x="920" y="710" as="sourcePoint" />
            <mxPoint x="1080" y="710" as="targetPoint" />
          </mxGeometry>
        </mxCell>
        <mxCell id="2UP2Gmx_aJuKZAox8dUP-81" value="Обмен информацией с платежными системами" style="html=1;outlineConnect=0;whiteSpace=wrap;fillColor=#99ffff;shape=mxgraph.archimate3.application;appType=func;archiType=rounded;" parent="1" vertex="1">
          <mxGeometry x="1055" y="1705" width="150" height="75" as="geometry" />
        </mxCell>
        <mxCell id="2UP2Gmx_aJuKZAox8dUP-83" value="PRODUCER" style="html=1;outlineConnect=0;whiteSpace=wrap;fillColor=#99ffff;shape=mxgraph.archimate3.application;appType=serv;archiType=rounded" parent="1" vertex="1">
          <mxGeometry x="970" y="1815" width="145" height="65" as="geometry" />
        </mxCell>
        <mxCell id="2UP2Gmx_aJuKZAox8dUP-84" value="Брокер сообщений" style="html=1;outlineConnect=0;whiteSpace=wrap;fillColor=#99ffff;shape=mxgraph.archimate3.application;appType=comp;archiType=square;" parent="1" vertex="1">
          <mxGeometry x="1055" y="2120" width="190" height="100" as="geometry" />
        </mxCell>
        <mxCell id="2UP2Gmx_aJuKZAox8dUP-85" value="" style="edgeStyle=elbowEdgeStyle;html=1;endArrow=open;elbow=vertical;endFill=1;rounded=0;entryX=0.5;entryY=0;entryDx=0;entryDy=0;entryPerimeter=0;exitX=0.25;exitY=1;exitDx=0;exitDy=0;exitPerimeter=0;" parent="1" source="2UP2Gmx_aJuKZAox8dUP-81" target="2UP2Gmx_aJuKZAox8dUP-83" edge="1">
          <mxGeometry width="160" relative="1" as="geometry">
            <mxPoint x="1153" y="1730" as="sourcePoint" />
            <mxPoint x="1313" y="1730" as="targetPoint" />
          </mxGeometry>
        </mxCell>
        <mxCell id="2UP2Gmx_aJuKZAox8dUP-86" value="" style="edgeStyle=elbowEdgeStyle;html=1;endArrow=open;elbow=vertical;endFill=1;rounded=0;exitX=0.5;exitY=1;exitDx=0;exitDy=0;exitPerimeter=0;entryX=0.25;entryY=0;entryDx=0;entryDy=0;entryPerimeter=0;" parent="1" source="2UP2Gmx_aJuKZAox8dUP-83" target="2UP2Gmx_aJuKZAox8dUP-84" edge="1">
          <mxGeometry width="160" relative="1" as="geometry">
            <mxPoint x="960" y="1830.07" as="sourcePoint" />
            <mxPoint x="1120" y="1830.07" as="targetPoint" />
          </mxGeometry>
        </mxCell>
        <mxCell id="2UP2Gmx_aJuKZAox8dUP-97" value="Запрос на проведение платежа" style="edgeLabel;html=1;align=center;verticalAlign=middle;resizable=0;points=[];" parent="2UP2Gmx_aJuKZAox8dUP-86" vertex="1" connectable="0">
          <mxGeometry x="-0.6074" y="-2" relative="1" as="geometry">
            <mxPoint as="offset" />
          </mxGeometry>
        </mxCell>
        <mxCell id="2UP2Gmx_aJuKZAox8dUP-88" value="" style="edgeStyle=elbowEdgeStyle;html=1;endArrow=open;elbow=vertical;endFill=1;rounded=0;exitX=0.25;exitY=1;exitDx=0;exitDy=0;exitPerimeter=0;entryX=0.25;entryY=0;entryDx=0;entryDy=0;entryPerimeter=0;" parent="1" source="2UP2Gmx_aJuKZAox8dUP-84" target="AQINbPIV-0PW6xjad2_r-301" edge="1">
          <mxGeometry width="160" relative="1" as="geometry">
            <mxPoint x="1090" y="2060" as="sourcePoint" />
            <mxPoint x="1250" y="2060" as="targetPoint" />
          </mxGeometry>
        </mxCell>
        <mxCell id="2UP2Gmx_aJuKZAox8dUP-89" value="CONSUMER" style="html=1;outlineConnect=0;whiteSpace=wrap;fillColor=#99ffff;shape=mxgraph.archimate3.application;appType=serv;archiType=rounded" parent="1" vertex="1">
          <mxGeometry x="1163" y="1815" width="145" height="65" as="geometry" />
        </mxCell>
        <mxCell id="2UP2Gmx_aJuKZAox8dUP-90" value="" style="edgeStyle=elbowEdgeStyle;html=1;endArrow=open;elbow=vertical;endFill=1;rounded=0;entryX=0.75;entryY=1;entryDx=0;entryDy=0;entryPerimeter=0;" parent="1" source="2UP2Gmx_aJuKZAox8dUP-89" target="2UP2Gmx_aJuKZAox8dUP-81" edge="1">
          <mxGeometry width="160" relative="1" as="geometry">
            <mxPoint x="1240" y="1705" as="sourcePoint" />
            <mxPoint x="1400" y="1705" as="targetPoint" />
          </mxGeometry>
        </mxCell>
        <mxCell id="2UP2Gmx_aJuKZAox8dUP-91" value="" style="edgeStyle=elbowEdgeStyle;html=1;endArrow=open;elbow=vertical;endFill=1;rounded=0;entryX=0.75;entryY=1;entryDx=0;entryDy=0;entryPerimeter=0;exitX=0.75;exitY=0;exitDx=0;exitDy=0;exitPerimeter=0;" parent="1" source="2UP2Gmx_aJuKZAox8dUP-84" target="2UP2Gmx_aJuKZAox8dUP-89" edge="1">
          <mxGeometry width="160" relative="1" as="geometry">
            <mxPoint x="1070" y="1850" as="sourcePoint" />
            <mxPoint x="1230" y="1850" as="targetPoint" />
          </mxGeometry>
        </mxCell>
        <mxCell id="2UP2Gmx_aJuKZAox8dUP-98" value="Ответ платежной системы" style="edgeLabel;html=1;align=center;verticalAlign=middle;resizable=0;points=[];" parent="2UP2Gmx_aJuKZAox8dUP-91" vertex="1" connectable="0">
          <mxGeometry x="0.5591" relative="1" as="geometry">
            <mxPoint as="offset" />
          </mxGeometry>
        </mxCell>
        <mxCell id="2UP2Gmx_aJuKZAox8dUP-93" value="" style="edgeStyle=elbowEdgeStyle;html=1;endArrow=open;elbow=vertical;endFill=1;rounded=0;exitX=0.75;exitY=0;exitDx=0;exitDy=0;exitPerimeter=0;entryX=0.75;entryY=1;entryDx=0;entryDy=0;entryPerimeter=0;" parent="1" source="AQINbPIV-0PW6xjad2_r-301" target="2UP2Gmx_aJuKZAox8dUP-84" edge="1">
          <mxGeometry width="160" relative="1" as="geometry">
            <mxPoint x="1070" y="2020" as="sourcePoint" />
            <mxPoint x="1250" y="2060" as="targetPoint" />
          </mxGeometry>
        </mxCell>
        <mxCell id="2UP2Gmx_aJuKZAox8dUP-99" value="Управление оплатой" style="html=1;outlineConnect=0;whiteSpace=wrap;fillColor=#99ffff;shape=mxgraph.archimate3.application;appType=func;archiType=rounded;" parent="1" vertex="1">
          <mxGeometry x="1055" y="1600" width="150" height="75" as="geometry" />
        </mxCell>
        <mxCell id="2UP2Gmx_aJuKZAox8dUP-101" value="Подтверждение оплаты и формирование чека" style="html=1;outlineConnect=0;whiteSpace=wrap;fillColor=#99ffff;shape=mxgraph.archimate3.application;appType=func;archiType=rounded;" parent="1" vertex="1">
          <mxGeometry x="1225" y="1490" width="150" height="75" as="geometry" />
        </mxCell>
        <mxCell id="2UP2Gmx_aJuKZAox8dUP-102" value="" style="edgeStyle=elbowEdgeStyle;html=1;endArrow=open;elbow=vertical;endFill=1;rounded=0;entryX=0.5;entryY=1;entryDx=0;entryDy=0;entryPerimeter=0;exitX=1;exitY=0.5;exitDx=0;exitDy=0;exitPerimeter=0;" parent="1" source="2UP2Gmx_aJuKZAox8dUP-99" target="2UP2Gmx_aJuKZAox8dUP-101" edge="1">
          <mxGeometry width="160" relative="1" as="geometry">
            <mxPoint x="1230" y="1570" as="sourcePoint" />
            <mxPoint x="1390" y="1570" as="targetPoint" />
            <Array as="points">
              <mxPoint x="1290" y="1638" />
            </Array>
          </mxGeometry>
        </mxCell>
        <mxCell id="2UP2Gmx_aJuKZAox8dUP-103" value="" style="edgeStyle=elbowEdgeStyle;html=1;endArrow=open;elbow=vertical;endFill=1;rounded=0;entryX=0.5;entryY=1;entryDx=0;entryDy=0;entryPerimeter=0;exitX=0.5;exitY=0;exitDx=0;exitDy=0;exitPerimeter=0;" parent="1" source="2UP2Gmx_aJuKZAox8dUP-101" target="2UP2Gmx_aJuKZAox8dUP-72" edge="1">
          <mxGeometry width="160" relative="1" as="geometry">
            <mxPoint x="1230" y="1570" as="sourcePoint" />
            <mxPoint x="1390" y="1570" as="targetPoint" />
          </mxGeometry>
        </mxCell>
        <mxCell id="2UP2Gmx_aJuKZAox8dUP-104" value="Сбой оплаты" style="html=1;outlineConnect=0;whiteSpace=wrap;fillColor=#99ffff;shape=mxgraph.archimate3.application;appType=func;archiType=rounded;" parent="1" vertex="1">
          <mxGeometry x="880" y="1490" width="150" height="75" as="geometry" />
        </mxCell>
        <mxCell id="2UP2Gmx_aJuKZAox8dUP-105" value="Недостаток средств" style="html=1;outlineConnect=0;whiteSpace=wrap;fillColor=#99ffff;shape=mxgraph.archimate3.application;appType=func;archiType=rounded;" parent="1" vertex="1">
          <mxGeometry x="1055" y="1490" width="150" height="75" as="geometry" />
        </mxCell>
        <mxCell id="2UP2Gmx_aJuKZAox8dUP-106" value="" style="edgeStyle=elbowEdgeStyle;html=1;endArrow=open;elbow=vertical;endFill=1;rounded=0;exitX=0;exitY=0.5;exitDx=0;exitDy=0;exitPerimeter=0;entryX=0.5;entryY=1;entryDx=0;entryDy=0;entryPerimeter=0;" parent="1" source="2UP2Gmx_aJuKZAox8dUP-99" target="2UP2Gmx_aJuKZAox8dUP-104" edge="1">
          <mxGeometry width="160" relative="1" as="geometry">
            <mxPoint x="1230" y="1570" as="sourcePoint" />
            <mxPoint x="1390" y="1570" as="targetPoint" />
            <Array as="points">
              <mxPoint x="960" y="1638" />
            </Array>
          </mxGeometry>
        </mxCell>
        <mxCell id="2UP2Gmx_aJuKZAox8dUP-107" value="" style="edgeStyle=elbowEdgeStyle;html=1;endArrow=open;elbow=vertical;endFill=1;rounded=0;exitX=0.5;exitY=0;exitDx=0;exitDy=0;exitPerimeter=0;entryX=0.5;entryY=1;entryDx=0;entryDy=0;entryPerimeter=0;" parent="1" source="2UP2Gmx_aJuKZAox8dUP-99" target="2UP2Gmx_aJuKZAox8dUP-105" edge="1">
          <mxGeometry width="160" relative="1" as="geometry">
            <mxPoint x="1230" y="1570" as="sourcePoint" />
            <mxPoint x="1390" y="1570" as="targetPoint" />
          </mxGeometry>
        </mxCell>
        <mxCell id="2UP2Gmx_aJuKZAox8dUP-108" value="" style="edgeStyle=elbowEdgeStyle;html=1;endArrow=open;elbow=vertical;endFill=1;rounded=0;exitX=0.5;exitY=0;exitDx=0;exitDy=0;exitPerimeter=0;entryX=0.25;entryY=1;entryDx=0;entryDy=0;entryPerimeter=0;" parent="1" source="2UP2Gmx_aJuKZAox8dUP-104" target="2UP2Gmx_aJuKZAox8dUP-77" edge="1">
          <mxGeometry width="160" relative="1" as="geometry">
            <mxPoint x="1230" y="1570" as="sourcePoint" />
            <mxPoint x="1390" y="1570" as="targetPoint" />
          </mxGeometry>
        </mxCell>
        <mxCell id="2UP2Gmx_aJuKZAox8dUP-109" value="" style="edgeStyle=elbowEdgeStyle;html=1;endArrow=open;elbow=vertical;endFill=1;rounded=0;exitX=0.5;exitY=0;exitDx=0;exitDy=0;exitPerimeter=0;entryX=0.5;entryY=1;entryDx=0;entryDy=0;entryPerimeter=0;" parent="1" source="2UP2Gmx_aJuKZAox8dUP-105" target="2UP2Gmx_aJuKZAox8dUP-77" edge="1">
          <mxGeometry width="160" relative="1" as="geometry">
            <mxPoint x="1230" y="1570" as="sourcePoint" />
            <mxPoint x="1390" y="1570" as="targetPoint" />
          </mxGeometry>
        </mxCell>
        <mxCell id="2UP2Gmx_aJuKZAox8dUP-110" value="" style="edgeStyle=elbowEdgeStyle;html=1;endArrow=open;elbow=vertical;endFill=1;rounded=0;entryX=0.75;entryY=1;entryDx=0;entryDy=0;entryPerimeter=0;exitX=0.5;exitY=0;exitDx=0;exitDy=0;exitPerimeter=0;" parent="1" source="2UP2Gmx_aJuKZAox8dUP-72" target="2UP2Gmx_aJuKZAox8dUP-66" edge="1">
          <mxGeometry width="160" relative="1" as="geometry">
            <mxPoint x="910" y="1170" as="sourcePoint" />
            <mxPoint x="1070" y="1170" as="targetPoint" />
          </mxGeometry>
        </mxCell>
        <mxCell id="2UP2Gmx_aJuKZAox8dUP-111" value="Событие: наступление времени 03:00" style="html=1;outlineConnect=0;whiteSpace=wrap;fillColor=#99ffff;shape=mxgraph.archimate3.application;appType=event;archiType=rounded" parent="1" vertex="1">
          <mxGeometry x="-700" y="1630" width="150" height="75" as="geometry" />
        </mxCell>
        <mxCell id="2UP2Gmx_aJuKZAox8dUP-112" value="" style="edgeStyle=elbowEdgeStyle;html=1;endArrow=block;dashed=0;elbow=vertical;endFill=1;rounded=0;exitX=1;exitY=0.5;exitDx=0;exitDy=0;exitPerimeter=0;entryX=0;entryY=0.5;entryDx=0;entryDy=0;entryPerimeter=0;" parent="1" source="2UP2Gmx_aJuKZAox8dUP-111" target="2UP2Gmx_aJuKZAox8dUP-27" edge="1">
          <mxGeometry width="160" relative="1" as="geometry">
            <mxPoint x="-508" y="1610.47" as="sourcePoint" />
            <mxPoint x="-348" y="1610.47" as="targetPoint" />
          </mxGeometry>
        </mxCell>
        <mxCell id="2UP2Gmx_aJuKZAox8dUP-113" value="Инициирует" style="edgeLabel;html=1;align=center;verticalAlign=middle;resizable=0;points=[];" parent="2UP2Gmx_aJuKZAox8dUP-112" vertex="1" connectable="0">
          <mxGeometry x="-0.5521" y="-2" relative="1" as="geometry">
            <mxPoint as="offset" />
          </mxGeometry>
        </mxCell>
        <mxCell id="2UP2Gmx_aJuKZAox8dUP-116" value="" style="html=1;startArrow=diamondThin;startFill=1;edgeStyle=elbowEdgeStyle;elbow=vertical;startSize=10;endArrow=none;endFill=0;rounded=0;exitX=0.5;exitY=1;exitDx=0;exitDy=0;exitPerimeter=0;entryX=0.5;entryY=0;entryDx=0;entryDy=0;entryPerimeter=0;" parent="1" source="2UP2Gmx_aJuKZAox8dUP-99" target="2UP2Gmx_aJuKZAox8dUP-81" edge="1">
          <mxGeometry width="160" relative="1" as="geometry">
            <mxPoint x="910" y="1560" as="sourcePoint" />
            <mxPoint x="1070" y="1560" as="targetPoint" />
          </mxGeometry>
        </mxCell>
        <mxCell id="VL1IRFVw9CRqcu_rCFcb-1" value="БД: Данные о продуктах" style="html=1;outlineConnect=0;whiteSpace=wrap;fillColor=#99ffff;shape=mxgraph.archimate3.application;appType=passive;archiType=square;" vertex="1" parent="1">
          <mxGeometry x="-195" y="1790" width="150" height="75" as="geometry" />
        </mxCell>
        <mxCell id="VL1IRFVw9CRqcu_rCFcb-4" value="" style="edgeStyle=elbowEdgeStyle;html=1;endArrow=block;dashed=1;elbow=vertical;endFill=1;dashPattern=6 4;rounded=0;entryX=0.5;entryY=1;entryDx=0;entryDy=0;entryPerimeter=0;exitX=0.75;exitY=0;exitDx=0;exitDy=0;exitPerimeter=0;" edge="1" parent="1" source="VL1IRFVw9CRqcu_rCFcb-1" target="2UP2Gmx_aJuKZAox8dUP-32">
          <mxGeometry width="160" relative="1" as="geometry">
            <mxPoint x="-110" y="1580" as="sourcePoint" />
            <mxPoint x="50" y="1580" as="targetPoint" />
          </mxGeometry>
        </mxCell>
        <mxCell id="VL1IRFVw9CRqcu_rCFcb-5" value="" style="edgeStyle=elbowEdgeStyle;html=1;endArrow=block;dashed=1;elbow=vertical;endFill=1;dashPattern=6 4;rounded=0;entryX=0.5;entryY=1;entryDx=0;entryDy=0;entryPerimeter=0;" edge="1" parent="1" source="VL1IRFVw9CRqcu_rCFcb-1" target="2UP2Gmx_aJuKZAox8dUP-27">
          <mxGeometry width="160" relative="1" as="geometry">
            <mxPoint x="-110" y="1580" as="sourcePoint" />
            <mxPoint x="50" y="1580" as="targetPoint" />
          </mxGeometry>
        </mxCell>
        <mxCell id="VL1IRFVw9CRqcu_rCFcb-7" value="" style="edgeStyle=elbowEdgeStyle;html=1;endArrow=none;elbow=vertical;dashed=1;startFill=0;dashPattern=1 4;rounded=0;exitX=1;exitY=0.75;exitDx=0;exitDy=0;exitPerimeter=0;entryX=0.25;entryY=1;entryDx=0;entryDy=0;entryPerimeter=0;" edge="1" parent="1" source="VL1IRFVw9CRqcu_rCFcb-1" target="2UP2Gmx_aJuKZAox8dUP-31">
          <mxGeometry width="160" relative="1" as="geometry">
            <mxPoint y="1827.5" as="sourcePoint" />
            <mxPoint x="310" y="1705" as="targetPoint" />
            <Array as="points">
              <mxPoint x="175" y="1800" />
            </Array>
          </mxGeometry>
        </mxCell>
        <mxCell id="VL1IRFVw9CRqcu_rCFcb-9" value="&lt;font size=&quot;1&quot; style=&quot;&quot;&gt;&lt;b style=&quot;font-size: 22px;&quot;&gt;Система &quot;Терминалы самообслуживания&quot;&lt;/b&gt;&lt;/font&gt;" style="rounded=0;whiteSpace=wrap;html=1;" vertex="1" parent="1">
          <mxGeometry x="1040" y="-120" width="560" height="60" as="geometry" />
        </mxCell>
      </root>
    </mxGraphModel>
  </diagram>
</mxfile>
